<svg width="183" height="32" viewBox="0 0 183 32" fill="none" xmlns="http://www.w3.org/2000/svg">
<g clip-path="url(#clip0_712_8475)">
<path d="M51.8444 17.873H46.2951L44.9041 21.7533H42.6006L47.8956 7.36816H50.3486L55.6138 21.7533H53.2205L51.8444 17.873ZM46.8635 16.1468H51.276L49.1072 9.83213L46.8635 16.1468Z" fill="white"/>
<path d="M66.9524 16.5166C66.9524 19.7772 65.1875 21.8723 62.4652 21.8723C61.7873 21.9072 61.1132 21.7527 60.5204 21.4264C59.9277 21.1001 59.4404 20.6154 59.1146 20.0281V25.2362H56.9458V11.2641H59.0548V13.0051C59.4008 12.4254 59.8987 11.9482 60.4961 11.6238C61.0936 11.2992 61.7685 11.1393 62.4501 11.1609C65.1724 11.1609 66.9524 13.1969 66.9524 16.5166ZM64.7088 16.5166C64.7088 14.392 63.6019 12.9903 61.8968 12.9903C60.1916 12.9903 59.1146 14.4657 59.1146 16.5166C59.1146 18.5673 60.2364 20.0427 61.8968 20.0427C63.5571 20.0427 64.7088 18.6559 64.7088 16.5166Z" fill="white"/>
<path d="M78.6639 16.5169C78.6639 19.7774 76.8989 21.8726 74.1766 21.8726C73.5013 21.9046 72.8303 21.7488 72.2405 21.4227C71.6507 21.0965 71.1658 20.6134 70.841 20.0283V25.2364H68.6423V11.2644H70.7663V13.0054C71.1112 12.4246 71.6087 11.9466 72.2064 11.6219C72.8041 11.2972 73.4797 11.138 74.1617 11.1611C76.884 11.1611 78.6639 13.1972 78.6639 16.5169ZM76.4203 16.5169C76.4203 14.3923 75.3135 12.9906 73.6083 12.9906C71.903 12.9906 70.8261 14.466 70.8261 16.5169C70.8261 18.5676 71.948 20.043 73.6083 20.043C75.2685 20.043 76.4203 18.6562 76.4203 16.5169Z" fill="white"/>
<path d="M80.4285 7.36816H82.6122V21.7534H80.4285V7.36816Z" fill="white"/>
<path d="M93.9802 18.67C93.7423 19.6623 93.147 20.5358 92.305 21.1274C91.463 21.719 90.4317 21.9888 89.4031 21.8864C86.3069 21.8864 84.3923 19.8355 84.3923 16.5602C84.3923 13.2847 86.3218 11.1306 89.3133 11.1306C92.3048 11.1306 94.1147 13.1962 94.1147 16.3093V17.047H86.636V17.1798C86.6038 17.5653 86.6551 17.9531 86.7864 18.3175C86.9177 18.6819 87.1261 19.0147 87.3976 19.2937C87.6691 19.5727 87.9977 19.7916 88.3615 19.9359C88.7253 20.0801 89.116 20.1466 89.5077 20.1306C90.0235 20.1797 90.5414 20.0625 90.9837 19.7964C91.4261 19.5303 91.7689 19.1299 91.9608 18.6552L93.9802 18.67ZM86.606 15.5421H91.916C91.9368 15.1955 91.8844 14.8484 91.7622 14.5228C91.64 14.1972 91.4505 13.9002 91.2058 13.6506C90.9612 13.4008 90.6667 13.204 90.3409 13.0725C90.0152 12.9409 89.6653 12.8776 89.3133 12.8864C88.958 12.8825 88.6054 12.9483 88.2761 13.0802C87.9468 13.2121 87.6474 13.4073 87.3955 13.6545C87.1434 13.9018 86.9439 14.196 86.8083 14.52C86.6728 14.8441 86.604 15.1915 86.606 15.5421Z" fill="white"/>
<path d="M105.737 7.36896C106.375 7.33739 107.011 7.43778 107.608 7.66368C108.204 7.88958 108.745 8.23597 109.197 8.68062C109.649 9.12527 110.002 9.65841 110.234 10.2455C110.465 10.8327 110.568 11.4611 110.538 12.0902C110.566 12.7265 110.459 13.3616 110.223 13.9546C109.987 14.5475 109.628 15.0852 109.168 15.5327C108.709 15.9803 108.159 16.328 107.556 16.5534C106.951 16.7786 106.307 16.8767 105.662 16.841H102.536V21.7542H100.248V7.36896H105.737ZM102.536 14.9672H105.123C105.527 15.0208 105.936 14.9852 106.323 14.8632C106.71 14.7411 107.065 14.5356 107.36 14.2615C107.657 13.9875 107.888 13.6518 108.036 13.2787C108.186 12.9057 108.248 12.5048 108.22 12.105C108.248 11.7072 108.186 11.3081 108.038 10.9369C107.89 10.5656 107.66 10.2315 107.365 9.95879C107.071 9.68614 106.718 9.48172 106.332 9.36041C105.947 9.2391 105.54 9.20388 105.138 9.25745H102.536V14.9672Z" fill="white"/>
<path d="M111.331 16.5159C111.331 13.211 113.305 11.1306 116.386 11.1306C119.467 11.1306 121.427 13.211 121.427 16.5159C121.427 19.8207 119.482 21.8864 116.386 21.8864C113.29 21.8864 111.331 19.8207 111.331 16.5159ZM119.199 16.5159C119.199 14.2437 118.152 12.9159 116.386 12.9159C114.622 12.9159 113.56 14.2585 113.56 16.5159C113.56 18.7732 114.606 20.1158 116.386 20.1158C118.166 20.1158 119.199 18.788 119.199 16.5159Z" fill="white"/>
<path d="M122.968 16.5157C122.968 13.2698 124.779 11.16 127.456 11.16C128.131 11.1261 128.803 11.2813 129.393 11.6075C129.983 11.9338 130.468 12.418 130.791 13.0042V7.36816H132.975V21.7534H130.851V19.9681C130.526 20.57 130.034 21.0684 129.433 21.4054C128.832 21.7423 128.146 21.9039 127.456 21.8714C124.779 21.8714 122.968 19.7468 122.968 16.5157ZM125.197 16.5157C125.197 18.6698 126.304 20.0418 128.009 20.0418C129.715 20.0418 130.806 18.6402 130.806 16.5157C130.806 14.3911 129.685 12.9894 128.009 12.9894C126.334 12.9894 125.197 14.3763 125.197 16.5157Z" fill="white"/>
<path d="M142.279 14.8797C142.182 14.3049 141.87 13.7868 141.405 13.4285C140.939 13.0704 140.354 12.8984 139.766 12.9469C138.09 12.9469 136.968 14.3338 136.968 16.5174C136.968 18.701 138.09 20.0879 139.78 20.0879C140.359 20.1447 140.939 19.9831 141.403 19.6354C141.866 19.2879 142.179 18.78 142.279 18.2141H144.372C144.241 19.2976 143.685 20.2877 142.825 20.9739C141.965 21.6599 140.867 21.9879 139.766 21.8878C136.774 21.8878 134.755 19.8371 134.755 16.5174C134.755 13.1978 136.729 11.1322 139.751 11.1322C140.862 11.0411 141.966 11.3819 142.827 12.0819C143.687 12.782 144.237 13.7859 144.357 14.8797H142.279Z" fill="white"/>
<path d="M145.719 18.7744C145.719 16.9449 147.14 15.8236 149.667 15.6908L152.584 15.5285V14.6728C152.584 13.5072 151.806 12.8433 150.475 12.8433C149.985 12.7804 149.489 12.8954 149.079 13.167C148.669 13.4385 148.373 13.8478 148.246 14.3187H146.197C146.197 12.4301 148.052 11.0728 150.534 11.0728C153.018 11.0728 154.753 12.4449 154.753 14.5105V21.7547H152.599V20.0285C152.262 20.6137 151.772 21.0989 151.18 21.4337C150.588 21.7684 149.916 21.9404 149.233 21.9317C148.788 21.9728 148.339 21.9217 147.915 21.7817C147.489 21.6417 147.099 21.416 146.77 21.1188C146.439 20.8216 146.174 20.4596 145.992 20.0559C145.812 19.6522 145.719 19.2158 145.719 18.7744ZM152.584 17.8302V17.0187L149.966 17.181C148.651 17.2547 147.918 17.8154 147.918 18.6564C147.918 19.4973 148.68 20.1318 149.862 20.1318C150.195 20.158 150.529 20.1192 150.847 20.0178C151.165 19.9163 151.46 19.7541 151.714 19.5403C151.968 19.3266 152.177 19.0655 152.329 18.7721C152.481 18.4786 152.573 18.1586 152.599 17.8302H152.584Z" fill="white"/>
<path d="M160.841 11.1448C163.204 11.1448 164.894 12.4284 164.938 14.2874H162.89C162.8 13.3579 162.008 12.812 160.78 12.812C159.554 12.812 158.821 13.3432 158.821 14.1546C158.821 14.9661 159.345 15.2022 160.437 15.4825L162.231 15.8809C164.371 16.3972 165.223 17.1792 165.223 18.7137C165.223 20.6022 163.413 21.9005 160.735 21.9005C158.058 21.9005 156.547 20.6316 156.383 18.7137H158.582C158.746 19.7316 159.554 20.2628 160.886 20.2628C162.216 20.2628 163.009 19.7316 163.009 18.9054C163.009 18.0793 162.605 17.9022 161.513 17.6218L159.614 17.1644C157.699 16.7071 156.727 15.689 156.727 14.2874C156.683 12.4137 158.372 11.1448 160.841 11.1448Z" fill="white"/>
<path d="M169.936 8.77002V11.2488H171.955V12.9602H169.936V18.7438C169.936 19.6438 170.339 20.0569 171.222 20.0569H171.94V21.7536C171.54 21.8226 171.134 21.8522 170.728 21.8422C168.574 21.8422 167.737 21.0455 167.737 19.0094V12.975H166.241V11.2635H167.737V8.77002H169.936Z" fill="white"/>
<path d="M177.818 11.1448C180.182 11.1448 181.871 12.4284 181.916 14.2874H179.867C179.778 13.3579 178.985 12.812 177.758 12.812C176.531 12.812 175.798 13.3432 175.798 14.1546C175.798 14.9661 176.323 15.2022 177.414 15.4825L179.209 15.8809C181.348 16.3972 182.2 17.1792 182.2 18.7137C182.2 20.6022 180.39 21.9005 177.788 21.9005C175.186 21.9005 173.54 20.5727 173.391 18.6989H175.545C175.709 19.7169 176.517 20.248 177.848 20.248C179.179 20.248 179.972 19.7169 179.972 18.8906C179.972 18.0645 179.568 17.8874 178.476 17.6071L176.531 17.1498C174.617 16.6923 173.645 15.6744 173.645 14.2727C173.66 12.4137 175.35 11.1448 177.818 11.1448Z" fill="white"/>
<path d="M31.7458 27.6774C31.2869 28.7543 30.5601 29.6996 29.6325 30.4258C28.9545 30.9515 28.1831 31.3476 27.3577 31.5942C26.076 31.8995 24.7586 32.0335 23.4407 31.9925H8.91679C7.60334 32.0344 6.2902 31.9004 5.01324 31.5942C4.17794 31.352 3.39686 30.9554 2.71149 30.4258C1.81108 29.7209 1.09938 28.8092 0.638574 27.7703C0.141756 26.2817 -0.0682538 24.7146 0.0193896 23.1498V8.78379C-0.052211 7.24913 0.16222 5.71454 0.652033 4.25622C1.10526 3.20921 1.8125 2.28817 2.71149 1.5742C3.39283 1.04603 4.16921 0.649608 4.99978 0.405802C6.27673 0.0996055 7.58988 -0.0343881 8.90334 0.00748285H23.4811C24.7989 -0.0334759 26.1164 0.100497 27.3981 0.405802C28.2092 0.656827 28.9667 1.05288 29.6325 1.5742C30.533 2.27914 31.2446 3.19084 31.7054 4.22967C32.194 5.69723 32.4039 7.2411 32.3247 8.78379V23.1498C32.4136 24.6812 32.2174 26.2157 31.7458 27.6774Z" fill="url(#paint0_linear_712_8475)"/>
<path d="M18.6358 18.6642C18.2824 18.3435 17.8673 18.096 17.4151 17.9363C16.9629 17.7766 16.4828 17.7081 16.0032 17.7347C15.5287 17.7121 15.0542 17.7825 14.6074 17.9422C14.1607 18.1017 13.7505 18.3471 13.4007 18.6642C13.1223 18.9359 12.9525 19.2972 12.922 19.6822C12.8275 20.5749 12.8275 21.4749 12.922 22.3675C13.0117 23.4593 13.1912 24.9052 13.4305 26.3806C13.5245 27.0628 13.6644 27.7381 13.8493 28.4019C14.0154 28.8042 14.3093 29.1425 14.6869 29.366C15.0645 29.5895 15.5054 29.6861 15.9435 29.6413C16.3835 29.687 16.8267 29.591 17.2069 29.3676C17.5871 29.1442 17.8837 28.8054 18.0524 28.4019C18.2374 27.7381 18.3773 27.0628 18.4713 26.3806C18.6956 24.9052 18.8751 23.4298 18.9649 22.3675C19.0593 21.4749 19.0593 20.5749 18.9649 19.6822C18.976 19.3159 18.8599 18.9567 18.6358 18.6642ZM13.1015 13.6627C13.1015 14.2462 13.2769 14.8168 13.6056 15.302C13.9344 15.7873 14.4016 16.1655 14.9482 16.3888C15.4948 16.6122 16.0963 16.6706 16.6766 16.5567C17.2569 16.4429 17.79 16.1619 18.2084 15.7491C18.6267 15.3365 18.9116 14.8107 19.027 14.2383C19.1425 13.6659 19.0833 13.0726 18.8568 12.5335C18.6304 11.9942 18.247 11.5333 17.755 11.2091C17.2631 10.8849 16.6846 10.7119 16.093 10.7119C15.2996 10.7119 14.5387 11.0227 13.9777 11.5761C13.4167 12.1295 13.1015 12.88 13.1015 13.6627ZM16.0032 2.19875C13.0218 2.21227 10.1407 3.26382 7.86848 5.16797C5.59619 7.07212 4.07853 9.70655 3.58314 12.6067C3.08775 15.5068 3.64646 18.4863 5.16073 21.0198C6.67499 23.5533 9.04756 25.4779 11.86 26.4544C11.8883 26.4618 11.918 26.4623 11.9465 26.4558C11.9751 26.4493 12.0016 26.4359 12.0236 26.4171C12.0458 26.3981 12.0629 26.3742 12.0735 26.3473C12.0841 26.3203 12.0878 26.2913 12.0844 26.2626C12.0096 25.8347 11.9497 25.4069 11.8899 24.9938C11.884 24.9193 11.857 24.8481 11.8121 24.7881C11.7671 24.7281 11.706 24.6818 11.6356 24.6544C9.31878 23.6399 7.4264 21.8698 6.27656 19.6414C5.12673 17.413 4.78944 14.8621 5.32139 12.4174C5.85334 9.97272 7.2221 7.78305 9.19776 6.21635C11.1733 4.64965 13.6354 3.80137 16.1703 3.81404C18.7052 3.82672 21.1584 4.69956 23.1178 6.28593C25.0772 7.8723 26.4234 10.0756 26.9302 12.5255C27.437 14.9754 27.0736 17.5227 25.9009 19.7395C24.7282 21.9563 22.8177 23.7074 20.4906 24.6987C20.4202 24.7261 20.359 24.7724 20.3141 24.8323C20.2692 24.8924 20.2422 24.9636 20.2363 25.038C20.2363 25.4511 20.1166 25.879 20.0418 26.3069C20.0384 26.3355 20.0421 26.3646 20.0527 26.3916C20.0633 26.4185 20.0804 26.4424 20.1026 26.4613C20.1246 26.4802 20.1511 26.4935 20.1797 26.5C20.2081 26.5066 20.2379 26.5061 20.2662 26.4986C23.1216 25.5425 25.5371 23.6119 27.0775 21.0548C28.6178 18.4975 29.1815 15.4819 28.6674 12.5509C28.1532 9.61996 26.5948 6.96652 24.273 5.06854C21.9511 3.17055 19.0184 2.15285 16.0032 2.19875ZM15.7789 7.92327C17.1749 7.86917 18.5544 8.23733 19.7323 8.97847C20.9101 9.71962 21.8301 10.7983 22.3688 12.0698C22.9076 13.3412 23.0393 14.7449 22.7463 16.0923C22.4535 17.4398 21.7498 18.6667 20.7299 19.6085C20.6761 19.6632 20.6339 19.7278 20.6056 19.7988C20.5773 19.8697 20.5637 19.9454 20.5654 20.0216C20.5976 20.5129 20.5976 21.0057 20.5654 21.497C20.5664 21.5276 20.5754 21.5574 20.5916 21.5835C20.6077 21.6097 20.6305 21.6312 20.6575 21.6461C20.6847 21.661 20.7153 21.6686 20.7463 21.6683C20.7773 21.668 20.8077 21.6599 20.8346 21.6446C22.3337 20.6383 23.4663 19.1845 24.0663 17.4966C24.6663 15.8088 24.7021 13.9756 24.1684 12.2662C23.6346 10.5568 22.5595 9.06118 21.1007 7.99879C19.6419 6.93634 17.8764 6.36305 16.0631 6.36305C14.2498 6.36305 12.4842 6.93634 11.0255 7.99879C9.56673 9.06118 8.49159 10.5568 7.95783 12.2662C7.42409 13.9756 7.45985 15.8088 8.05985 17.4966C8.65984 19.1845 9.79253 20.6383 11.2916 21.6446C11.3173 21.6612 11.3471 21.6703 11.3778 21.671C11.4085 21.6718 11.4388 21.664 11.4652 21.6487C11.4916 21.6333 11.5133 21.6111 11.5275 21.5842C11.5417 21.5574 11.5482 21.5272 11.5459 21.497C11.5459 20.9954 11.5459 20.538 11.5459 20.0216C11.5536 19.9448 11.5428 19.8673 11.5141 19.7955C11.4855 19.7236 11.44 19.6596 11.3813 19.6085C10.3983 18.6902 9.71252 17.5058 9.41012 16.2041C9.10772 14.9024 9.20227 13.5415 9.68184 12.2926C10.1614 11.0438 11.0046 9.96264 12.1054 9.18518C13.2062 8.40782 14.5155 7.96876 15.8687 7.92327H15.7789Z" fill="white"/>
</g>
<defs>
<linearGradient id="paint0_linear_712_8475" x1="16.199" y1="0.00748285" x2="16.199" y2="31.9261" gradientUnits="userSpaceOnUse">
<stop stop-color="#F452FF"/>
<stop offset="1" stop-color="#832BC1"/>
</linearGradient>
<clipPath id="clip0_712_8475">
<rect width="182.746" height="32" fill="white"/>
</clipPath>
</defs>
</svg>
