<svg width="196" height="32" viewBox="0 0 196 32" fill="none" xmlns="http://www.w3.org/2000/svg">
<g clip-path="url(#clip0_712_8691)">
<path fill-rule="evenodd" clip-rule="evenodd" d="M118.251 22.8658H116.332V8.20215H121.421C122.686 8.20215 123.781 8.61516 124.705 9.44114C125.63 10.2672 126.092 11.3082 126.092 12.5643C126.092 13.8205 125.63 14.8615 124.705 15.6875C123.781 16.5136 122.686 16.9266 121.421 16.9266H118.251V22.8658ZM118.251 15.1244H121.462C122.269 15.1244 122.916 14.8581 123.402 14.3257C123.889 13.7931 124.132 13.206 124.132 12.5643C124.132 11.9227 123.889 11.3356 123.402 10.8031C122.916 10.2706 122.269 10.0044 121.462 10.0044H118.251V15.1244ZM127.684 14.039C128.671 13.0149 129.929 12.5029 131.458 12.5029C132.988 12.5029 134.246 13.0115 135.233 14.0287C136.22 15.0459 136.714 16.319 136.714 17.8481C136.714 19.3773 136.22 20.6505 135.233 21.6677C134.246 22.6849 132.988 23.1934 131.458 23.1934C129.929 23.1934 128.671 22.6849 127.684 21.6677C126.697 20.6505 126.203 19.3773 126.203 17.8481C126.203 16.319 126.697 15.0493 127.684 14.039ZM129.102 20.4901C129.769 21.1454 130.555 21.4732 131.458 21.4732C132.362 21.4732 133.144 21.142 133.805 20.4798C134.465 19.8177 134.795 18.9405 134.795 17.8481C134.795 16.7559 134.465 15.8787 133.805 15.2165C133.144 14.5543 132.362 14.2232 131.458 14.2232C130.555 14.2232 129.772 14.5543 129.112 15.2165C128.452 15.8787 128.122 16.7559 128.122 17.8481C128.122 18.9405 128.448 19.8211 129.102 20.4901ZM142.497 23.1934C141.176 23.1934 140.036 22.6814 139.077 21.6574C138.118 20.6334 137.637 19.3636 137.637 17.8481C137.637 16.3326 138.118 15.0629 139.077 14.039C140.036 13.0149 141.176 12.5029 142.497 12.5029C143.275 12.5029 143.974 12.6668 144.593 12.9944C145.212 13.3221 145.674 13.7317 145.98 14.2232H146.063L145.98 12.8306V8.20215H147.899V22.8658H146.063V21.4732H145.98C145.674 21.9646 145.212 22.3742 144.593 22.7019C143.974 23.0296 143.275 23.1934 142.497 23.1934ZM142.81 21.4732C143.713 21.4732 144.482 21.1454 145.114 20.4901C145.747 19.8347 146.063 18.9541 146.063 17.8481C146.063 16.7423 145.747 15.8616 145.114 15.2063C144.482 14.5509 143.713 14.2232 142.81 14.2232C141.92 14.2232 141.155 14.5543 140.516 15.2165C139.876 15.8787 139.556 16.7559 139.556 17.8481C139.556 18.9405 139.876 19.8177 140.516 20.4798C141.155 21.142 141.92 21.4732 142.81 21.4732ZM154.557 23.1934C153.029 23.1934 151.77 22.6849 150.783 21.6677C149.796 20.6505 149.302 19.3773 149.302 17.8481C149.302 16.319 149.796 15.0459 150.783 14.0287C151.77 13.0115 153.029 12.5029 154.557 12.5029C155.698 12.5029 156.643 12.7759 157.394 13.3221C158.145 13.8683 158.694 14.5577 159.041 15.3906L157.29 16.1074C156.761 14.8512 155.809 14.2232 154.433 14.2232C153.585 14.2232 152.837 14.5646 152.191 15.2472C151.544 15.9299 151.221 16.7968 151.221 17.8481C151.221 18.8994 151.544 19.7665 152.191 20.4491C152.837 21.1318 153.585 21.4732 154.433 21.4732C155.865 21.4732 156.852 20.845 157.394 19.589L159.104 20.3057C158.756 21.125 158.197 21.8111 157.425 22.3639C156.653 22.9169 155.698 23.1934 154.557 23.1934ZM163.656 23.1934C162.572 23.1934 161.665 22.8862 160.935 22.2719C160.205 21.6574 159.84 20.845 159.84 19.8347C159.84 18.7424 160.271 17.8857 161.133 17.2645C161.995 16.6433 163.059 16.3326 164.324 16.3326C165.45 16.3326 166.374 16.5374 167.097 16.9471V16.6603C167.097 15.9231 166.841 15.3326 166.326 14.8888C165.811 14.4451 165.179 14.2232 164.429 14.2232C163.872 14.2232 163.368 14.3529 162.916 14.6124C162.465 14.8718 162.155 15.2267 161.988 15.6773L160.236 14.94C160.472 14.3392 160.939 13.783 161.634 13.271C162.329 12.7589 163.246 12.5029 164.386 12.5029C165.693 12.5029 166.778 12.8784 167.64 13.6293C168.502 14.3802 168.933 15.4383 168.933 16.8037V22.8658H167.097V21.4732H167.014C166.249 22.62 165.13 23.1934 163.656 23.1934ZM163.969 21.4732C164.762 21.4732 165.481 21.1829 166.128 20.6027C166.774 20.0225 167.097 19.3364 167.097 18.5445C166.556 18.1076 165.742 17.8891 164.657 17.8891C163.726 17.8891 163.024 18.0871 162.551 18.483C162.079 18.879 161.842 19.3432 161.842 19.8756C161.842 20.3672 162.058 20.7564 162.489 21.0431C162.92 21.3298 163.413 21.4732 163.969 21.4732ZM174.549 23.1934C173.409 23.1934 172.467 22.9203 171.723 22.3742C170.979 21.8281 170.433 21.1454 170.086 20.3263L171.796 19.6299C172.339 20.886 173.263 21.5141 174.57 21.5141C175.168 21.5141 175.658 21.3844 176.04 21.125C176.423 20.8656 176.614 20.5242 176.614 20.101C176.614 19.4456 176.148 19.0019 175.216 18.7698L173.151 18.2782C172.498 18.1144 171.879 17.8038 171.295 17.3464C170.712 16.889 170.42 16.2713 170.42 15.493C170.42 14.6055 170.819 13.8853 171.619 13.3323C172.418 12.7794 173.367 12.5029 174.466 12.5029C175.369 12.5029 176.176 12.7043 176.885 13.1071C177.594 13.5099 178.102 14.0867 178.408 14.8377L176.739 15.5135C176.363 14.626 175.585 14.1823 174.403 14.1823C173.833 14.1823 173.353 14.2983 172.964 14.5304C172.574 14.7625 172.38 15.0766 172.38 15.4725C172.38 16.0459 172.832 16.4351 173.736 16.6399L175.759 17.1109C176.718 17.3294 177.427 17.7048 177.886 18.2373C178.345 18.7698 178.574 19.3705 178.574 20.0395C178.574 20.9406 178.199 21.6915 177.448 22.2923C176.698 22.8931 175.731 23.1934 174.549 23.1934ZM184.316 23.0296C183.245 23.0296 182.428 22.7497 181.865 22.19C181.301 21.6301 181.02 20.8383 181.02 19.8143V14.5509H179.227V12.8306H181.02V9.75858H182.939V12.8306H185.442V14.5509H182.939V19.6709C182.939 20.7631 183.398 21.3092 184.316 21.3092C184.663 21.3092 184.955 21.2547 185.191 21.1454L185.859 22.7633C185.442 22.9409 184.927 23.0296 184.316 23.0296ZM191.036 23.1934C189.896 23.1934 188.955 22.9203 188.211 22.3742C187.467 21.8281 186.921 21.1454 186.574 20.3263L188.284 19.6299C188.826 20.886 189.75 21.5141 191.058 21.5141C191.656 21.5141 192.145 21.3844 192.528 21.125C192.911 20.8656 193.101 20.5242 193.101 20.101C193.101 19.4456 192.636 19.0019 191.704 18.7698L189.639 18.2782C188.986 18.1144 188.367 17.8038 187.783 17.3464C187.199 16.889 186.907 16.2713 186.907 15.493C186.907 14.6055 187.307 13.8853 188.107 13.3323C188.906 12.7794 189.855 12.5029 190.954 12.5029C191.857 12.5029 192.664 12.7043 193.373 13.1071C194.082 13.5099 194.59 14.0867 194.895 14.8377L193.227 15.5135C192.851 14.626 192.073 14.1823 190.89 14.1823C190.32 14.1823 189.841 14.2983 189.452 14.5304C189.062 14.7625 188.868 15.0766 188.868 15.4725C188.868 16.0459 189.319 16.4351 190.224 16.6399L192.246 17.1109C193.206 17.3294 193.915 17.7048 194.374 18.2373C194.832 18.7698 195.062 19.3705 195.062 20.0395C195.062 20.9406 194.686 21.6915 193.936 22.2923C193.185 22.8931 192.219 23.1934 191.036 23.1934Z" fill="white"/>
<path d="M43.4656 14.7869C43.4656 10.147 47.425 6.38696 52.15 6.38696C54.757 6.38696 56.6145 7.39496 58.0158 8.70695L56.3538 10.3229C55.3599 9.39494 54.0075 8.67496 52.15 8.67496C48.7121 8.67496 46.0237 11.3949 46.0237 14.7709C46.0237 18.1469 48.7121 20.8669 52.15 20.8669C54.3823 20.8669 55.6532 19.9869 56.4679 19.1869C57.1359 18.5309 57.5759 17.587 57.7387 16.3069H52.15V14.0189H60.0198C60.1013 14.4349 60.1502 14.9149 60.1502 15.4589C60.1502 17.1869 59.6777 19.3149 58.1298 20.8189C56.6145 22.3549 54.6919 23.1708 52.15 23.1708C47.425 23.1708 43.4656 19.4109 43.4656 14.7869ZM66.4232 12.467C69.4701 12.467 71.9467 14.7389 71.9467 17.8749C71.9467 20.9949 69.4701 23.2829 66.4232 23.2829C63.3763 23.2829 60.8997 20.9949 60.8997 17.8749C60.8997 14.7389 63.3763 12.467 66.4232 12.467ZM66.4232 21.1388C68.0852 21.1388 69.5353 19.7949 69.5353 17.8589C69.5353 15.9069 68.0852 14.579 66.4232 14.579C64.745 14.579 63.3112 15.9069 63.3112 17.8589C63.3112 19.7949 64.7613 21.1388 66.4232 21.1388ZM78.4805 12.467C81.5273 12.467 84.004 14.7389 84.004 17.8749C84.004 20.9949 81.5273 23.2829 78.4805 23.2829C75.4335 23.2829 72.957 20.9949 72.957 17.8749C72.957 14.7389 75.4335 12.467 78.4805 12.467ZM78.4805 21.1388C80.1424 21.1388 81.5925 19.7949 81.5925 17.8589C81.5925 15.9069 80.1587 14.579 78.4805 14.579C76.8022 14.579 75.3684 15.9069 75.3684 17.8589C75.3684 19.7949 76.8185 21.1388 78.4805 21.1388ZM93.275 12.643H95.5887V22.3549C95.5887 26.3549 93.1935 27.9868 90.3584 27.9868C87.6863 27.9868 86.0732 26.2269 85.4704 24.7869L87.5722 23.9229C87.947 24.8029 88.8595 25.8429 90.3421 25.8429C92.1507 25.8429 93.275 24.7389 93.275 22.6749V21.8909H93.1935C92.6558 22.5469 91.613 23.1229 90.2932 23.1229C87.5397 23.1229 85.0142 20.7549 85.0142 17.7309C85.0142 14.6749 87.5397 12.307 90.2932 12.307C91.613 12.307 92.6558 12.8829 93.1935 13.523H93.275V12.643ZM90.505 20.9949C92.1507 20.9949 93.4542 19.6349 93.4379 17.7309C93.4379 15.8269 92.1507 14.4349 90.505 14.4349C88.8431 14.4349 87.4419 15.8269 87.4419 17.7309C87.4419 19.6189 88.8431 20.9949 90.505 20.9949ZM97.2344 22.9148V7.02696H99.6455V22.9148H97.2344ZM106.278 21.1388C107.515 21.1388 108.362 20.5468 108.998 19.6509L110.872 20.8829C110.253 21.7629 108.803 23.2829 106.278 23.2829C103.148 23.2829 100.819 20.8989 100.819 17.8749C100.819 14.6589 103.182 12.467 106.017 12.467C108.868 12.467 110.269 14.6909 110.725 15.9069L110.97 16.5149L103.605 19.5069C104.176 20.5789 105.039 21.1388 106.278 21.1388ZM106.098 14.5469C104.86 14.5469 103.148 15.6189 103.214 17.6989L108.135 15.6989C107.874 15.011 107.059 14.5469 106.098 14.5469Z" fill="white"/>
<path d="M14.6196 10V14.8492V16.7874V21.6364H18.6931V16.7874V14.8492V10H14.6196Z" fill="#FF7602"/>
<path d="M2.40343 16.9124C3.52828 16.9124 4.44015 16.0169 4.44015 14.9124C4.44015 13.8078 3.52828 12.9124 2.40343 12.9124C1.27857 12.9124 0.366699 13.8078 0.366699 14.9124C0.366699 16.0169 1.27857 16.9124 2.40343 16.9124Z" fill="#0066D9"/>
<path d="M2.40343 19.0945C3.52828 19.0945 4.44015 18.1991 4.44015 17.0945C4.44015 15.9899 3.52828 15.0945 2.40343 15.0945C1.27857 15.0945 0.366699 15.9899 0.366699 17.0945C0.366699 18.1991 1.27857 19.0945 2.40343 19.0945Z" fill="#0066D9"/>
<path d="M4.44015 14.9128H0.366699V17.0947H4.44015V14.9128Z" fill="#0066D9"/>
<path d="M30.9168 19.0945C32.0417 19.0945 32.9535 18.1991 32.9535 17.0945C32.9535 15.9899 32.0417 15.0945 30.9168 15.0945C29.792 15.0945 28.8801 15.9899 28.8801 17.0945C28.8801 18.1991 29.792 19.0945 30.9168 19.0945Z" fill="#4285F4"/>
<path d="M30.9168 16.9124C32.0417 16.9124 32.9535 16.0169 32.9535 14.9124C32.9535 13.8078 32.0417 12.9124 30.9168 12.9124C29.792 12.9124 28.8801 13.8078 28.8801 14.9124C28.8801 16.0169 29.792 16.9124 30.9168 16.9124Z" fill="#4285F4"/>
<path d="M28.8801 17.0947H32.9535V14.9128H28.8801V17.0947Z" fill="#4285F4"/>
<path d="M9.43857 23.4583C10.5634 23.4583 11.4753 22.5628 11.4753 21.4583C11.4753 20.3537 10.5634 19.4583 9.43857 19.4583C8.31372 19.4583 7.40186 20.3537 7.40186 21.4583C7.40186 22.5628 8.31372 23.4583 9.43857 23.4583Z" fill="#EA4335"/>
<path d="M9.43857 25.6402C10.5634 25.6402 11.4753 24.7448 11.4753 23.6402C11.4753 22.5357 10.5634 21.6401 9.43857 21.6401C8.31372 21.6401 7.40186 22.5357 7.40186 23.6402C7.40186 24.7448 8.31372 25.6402 9.43857 25.6402Z" fill="#EA4335"/>
<path d="M11.4753 21.4585H7.40186V23.6403H11.4753V21.4585Z" fill="#EA4335"/>
<path d="M9.43857 10.3672C10.5634 10.3672 11.4753 9.47174 11.4753 8.3672C11.4753 7.26262 10.5634 6.36719 9.43857 6.36719C8.31372 6.36719 7.40186 7.26262 7.40186 8.3672C7.40186 9.47174 8.31372 10.3672 9.43857 10.3672Z" fill="#EA4335"/>
<path d="M9.43857 17.4578C10.5634 17.4578 11.4753 16.5624 11.4753 15.4578C11.4753 14.3532 10.5634 13.4578 9.43857 13.4578C8.31372 13.4578 7.40186 14.3532 7.40186 15.4578C7.40186 16.5624 8.31372 17.4578 9.43857 17.4578Z" fill="#EA4335"/>
<path d="M11.4753 8.36694H7.40186V15.5034H11.4753V8.36694Z" fill="#EA4335"/>
<path d="M23.8809 12.5491C25.0058 12.5491 25.9176 11.6537 25.9176 10.5491C25.9176 9.44451 25.0058 8.54907 23.8809 8.54907C22.7561 8.54907 21.8442 9.44451 21.8442 10.5491C21.8442 11.6537 22.7561 12.5491 23.8809 12.5491Z" fill="#34A853"/>
<path d="M23.8809 10.3672C25.0058 10.3672 25.9176 9.47174 25.9176 8.3672C25.9176 7.26262 25.0058 6.36719 23.8809 6.36719C22.7561 6.36719 21.8442 7.26262 21.8442 8.3672C21.8442 9.47174 22.7561 10.3672 23.8809 10.3672Z" fill="#34A853"/>
<path d="M21.844 10.5488H25.9175V8.36694H21.844V10.5488Z" fill="#34A853"/>
<path d="M16.6598 6.18532C17.7847 6.18532 18.6965 5.2899 18.6965 4.18531C18.6965 3.08074 17.7847 2.1853 16.6598 2.1853C15.5349 2.1853 14.623 3.08074 14.623 4.18531C14.623 5.2899 15.5349 6.18532 16.6598 6.18532Z" fill="#FF7602"/>
<path d="M16.6598 4.00344C17.7847 4.00344 18.6965 3.108 18.6965 2.00343C18.6965 0.898855 17.7847 0.00341797 16.6598 0.00341797C15.5349 0.00341797 14.623 0.898855 14.623 2.00343C14.623 3.108 15.5349 4.00344 16.6598 4.00344Z" fill="#FF7602"/>
<path d="M14.623 4.18526H18.6965V2.00342H14.623V4.18526Z" fill="#FF7602"/>
<path d="M16.6598 32.0034C17.7847 32.0034 18.6965 31.108 18.6965 30.0034C18.6965 28.8988 17.7847 28.0034 16.6598 28.0034C15.5349 28.0034 14.623 28.8988 14.623 30.0034C14.623 31.108 15.5349 32.0034 16.6598 32.0034Z" fill="#FF7602"/>
<path d="M16.6598 29.822C17.7847 29.822 18.6965 28.9266 18.6965 27.822C18.6965 26.7174 17.7847 25.822 16.6598 25.822C15.5349 25.822 14.623 26.7174 14.623 27.822C14.623 28.9266 15.5349 29.822 16.6598 29.822Z" fill="#FF7602"/>
<path d="M14.623 30.0036H18.6965V27.8218H14.623V30.0036Z" fill="#FF7602"/>
<path d="M23.8809 25.6402C25.0058 25.6402 25.9176 24.7448 25.9176 23.6402C25.9176 22.5357 25.0058 21.6401 23.8809 21.6401C22.7561 21.6401 21.8442 22.5357 21.8442 23.6402C21.8442 24.7448 22.7561 25.6402 23.8809 25.6402Z" fill="#34A853"/>
<path d="M23.8809 18.5491C25.0058 18.5491 25.9176 17.6537 25.9176 16.5491C25.9176 15.4445 25.0058 14.5491 23.8809 14.5491C22.7561 14.5491 21.8442 15.4445 21.8442 16.5491C21.8442 17.6537 22.7561 18.5491 23.8809 18.5491Z" fill="#34A853"/>
<path d="M21.844 23.6401H25.9175V16.5491H21.844V23.6401Z" fill="#34A853"/>
<path d="M16.6598 12.1854C17.7847 12.1854 18.6965 11.2899 18.6965 10.1854C18.6965 9.08078 17.7847 8.1853 16.6598 8.1853C15.5349 8.1853 14.623 9.08078 14.623 10.1854C14.623 11.2899 15.5349 12.1854 16.6598 12.1854Z" fill="#FF7602"/>
<path d="M16.6598 23.822C17.7847 23.822 18.6965 22.9266 18.6965 21.822C18.6965 20.7175 17.7847 19.822 16.6598 19.822C15.5349 19.822 14.623 20.7175 14.623 21.822C14.623 22.9266 15.5349 23.822 16.6598 23.822Z" fill="#FF7602"/>
</g>
<defs>
<clipPath id="clip0_712_8691">
<rect width="195.728" height="32" fill="white"/>
</clipPath>
</defs>
</svg>
