<svg width="174" height="32" viewBox="0 0 174 32" fill="none" xmlns="http://www.w3.org/2000/svg">
<g clip-path="url(#clip0_712_9082)">
<path d="M47.2426 15.4002C45.0939 14.8842 44.4991 14.6168 44.4991 13.7568C44.4991 12.8968 44.998 12.5337 46.4176 12.5337C47.002 12.5373 47.579 12.6634 48.1111 12.9037C48.6433 13.1441 49.1187 13.4933 49.5064 13.9288L51.4249 12.0177C50.8056 11.3406 50.0496 10.8016 49.2066 10.4361C48.3634 10.0705 47.4522 9.88667 46.5328 9.89654C43.8469 9.89654 41.6597 11.4062 41.6597 13.8714C41.6597 16.3366 43.4056 17.3495 45.9188 17.9419C48.4321 18.5343 48.9692 18.9165 48.9692 19.853C48.9692 20.7894 48.2019 21.3244 46.5903 21.3244C45.9279 21.3386 45.2707 21.2052 44.6667 20.9341C44.0626 20.663 43.5269 20.261 43.0986 19.7574L41.1802 21.5155C41.8129 22.3152 42.6295 22.9515 43.5613 23.3706C44.4929 23.7898 45.512 23.9794 46.5328 23.9234C50.2547 23.9234 51.8854 22.1844 51.8854 19.5854C51.8086 16.6424 49.4105 15.8971 47.2426 15.4002ZM59.8088 9.89654C56.0868 9.89654 53.8806 12.7631 53.8806 16.9099C53.8806 21.0568 56.0868 23.9234 59.8088 23.9234C63.5306 23.9234 65.7178 21.0568 65.7178 16.9099C65.7178 12.7631 63.5498 9.89654 59.8088 9.89654ZM59.8088 21.2288C57.6217 21.2288 56.7008 19.3178 56.7008 16.9099C56.7008 14.502 57.6217 12.5911 59.8088 12.5911C61.9958 12.5911 62.9359 14.502 62.9359 16.9099C62.9359 19.3178 62.0151 21.2288 59.8088 21.2288ZM76.7683 17.7509C76.7683 19.9294 75.6939 21.2671 73.9673 21.2671C72.2406 21.2671 71.1662 19.8912 71.1662 17.7125V10.0685H68.442V17.7125C68.442 21.6684 70.6675 23.8852 73.9673 23.8852C77.2671 23.8852 79.4926 21.6111 79.4926 17.6743V10.0302H76.7683V17.7509ZM91.2721 15.8589V18.8401C91.0995 18.477 90.6583 17.8081 90.3321 17.2921L85.4782 10.1067H82.9842V23.7132H85.6894V17.7317V14.7505C85.862 15.0944 86.3033 15.7824 86.6293 16.2984L91.6559 23.7132H94.0923V10.1067H91.2721V15.8589ZM101.747 10.1067H97.4881V23.7132H101.555C102.478 23.7856 103.405 23.6605 104.275 23.3463C105.144 23.0321 105.937 22.5361 106.598 21.8917C107.26 21.2473 107.775 20.4693 108.11 19.61C108.444 18.7508 108.591 17.8302 108.539 16.9099C108.539 11.9413 105.661 10.1067 101.747 10.1067ZM101.555 21.076H100.251V12.7439H101.69C104.587 12.7439 105.776 14.139 105.776 16.9099C105.83 17.4738 105.758 18.0427 105.564 18.5753C105.371 19.1079 105.062 19.5911 104.658 19.9897C104.253 20.3885 103.765 20.6928 103.229 20.8806C102.692 21.0685 102.121 21.1352 101.555 21.076ZM116.98 12.5911C117.5 12.5635 118.017 12.6905 118.464 12.9559C118.911 13.2213 119.27 13.6131 119.494 14.0816L122.025 12.9159C121.597 11.9667 120.888 11.1698 119.993 10.6307C119.1 10.0915 118.061 9.83549 117.018 9.89654C113.469 9.89654 110.956 12.7631 110.956 16.9099C110.956 21.0568 113.354 23.9234 116.923 23.9234C117.981 23.9835 119.032 23.7213 119.936 23.1717C120.841 22.6221 121.557 21.8111 121.988 20.8466L119.685 19.4898C119.459 20.0107 119.084 20.4535 118.605 20.7628C118.127 21.0721 117.569 21.2342 116.999 21.2288C114.966 21.2288 113.776 19.3178 113.776 16.9099C113.776 14.502 114.946 12.5911 116.98 12.5911ZM127.109 10.1067H124.386V23.7132H132.597V21.0378H127.109V10.1067ZM139.791 9.89654C136.069 9.89654 133.863 12.7631 133.863 16.9099C133.863 21.0568 136.069 23.9234 139.791 23.9234C143.513 23.9234 145.719 21.0568 145.719 16.9099C145.719 12.7631 143.513 9.89654 139.791 9.89654ZM139.791 21.2288C137.584 21.2288 136.664 19.3178 136.664 16.9099C136.664 14.502 137.584 12.5911 139.791 12.5911C141.997 12.5911 142.898 14.502 142.898 16.9099C142.898 19.3178 141.997 21.2288 139.791 21.2288ZM156.731 17.7509C156.731 19.9294 155.676 21.2671 153.931 21.2671C152.185 21.2671 151.149 19.8912 151.149 17.7125V10.0685H148.405V17.7125C148.405 21.6684 150.631 23.8852 153.931 23.8852C157.23 23.8852 159.474 21.6111 159.474 17.6743V10.0302H156.731V17.7509ZM167.149 10.1067H162.89V23.7132H166.957C167.879 23.7856 168.806 23.6605 169.676 23.3463C170.547 23.0321 171.338 22.5361 172 21.8917C172.662 21.2473 173.177 20.4693 173.511 19.61C173.846 18.7508 173.992 17.8302 173.94 16.9099C173.94 11.9413 171.062 10.1067 167.149 10.1067ZM166.957 21.076H165.614V12.7439H167.052C169.949 12.7439 171.139 14.139 171.139 16.9099C171.193 17.4703 171.121 18.0355 170.93 18.565C170.738 19.0947 170.432 19.5756 170.033 19.9736C169.633 20.3716 169.15 20.6768 168.618 20.8674C168.086 21.0579 167.519 21.1292 166.957 21.076Z" fill="white"/>
<path d="M33.3053 16C33.3053 24.8889 25.8809 32 16.8933 32C7.90581 32 0.351074 24.8889 0.351074 16C0.351074 7.11112 7.77555 0 16.763 0C25.7506 0 33.3053 7.11112 33.3053 16Z" fill="url(#paint0_linear_712_9082)"/>
<path d="M4.35773 17.1932C4.36455 17.1356 4.40641 17.0952 4.45916 17.0952C4.50999 17.0952 4.55212 17.1355 4.56001 17.1929L4.77913 18.5839L4.56001 19.9512C4.55187 20.0085 4.51025 20.0484 4.45916 20.0484C4.40639 20.0484 4.36455 20.0083 4.35773 19.9507L4.17285 18.5839L4.35773 17.1932Z" fill="white"/>
<path d="M5.39228 16.2344C5.44557 16.2344 5.48879 16.2756 5.49751 16.3353L5.77995 18.5839L5.49723 20.7832C5.48854 20.8428 5.44529 20.8843 5.39228 20.8843C5.33847 20.8843 5.29414 20.8417 5.28707 20.7827L5.03857 18.5839L5.28707 16.3353C5.2944 16.277 5.33872 16.2344 5.39228 16.2344Z" fill="white"/>
<path d="M9.21697 14.4489C9.22176 14.3439 9.30615 14.2612 9.408 14.2612C9.50946 14.2612 9.59345 14.3439 9.59944 14.4489L9.82323 18.5858L9.59944 21.2596V21.2588C9.59345 21.3634 9.50946 21.4461 9.408 21.4461C9.30615 21.4461 9.22206 21.3637 9.21697 21.2593L9.01904 18.5858L9.21697 14.4489Z" fill="white"/>
<path d="M7.23563 15.8435C7.24191 15.7608 7.3058 15.699 7.38409 15.699C7.46157 15.699 7.52545 15.7608 7.53227 15.8429L7.78565 18.5845L7.53227 21.2365C7.52545 21.3186 7.46157 21.3805 7.38409 21.3805C7.30577 21.3805 7.24161 21.3186 7.23563 21.2365L7.0127 18.5845L7.23563 15.8435Z" fill="white"/>
<path d="M11.6994 21.2155C11.6942 21.3447 11.5915 21.4457 11.465 21.4457C11.3378 21.4457 11.2347 21.3445 11.2307 21.2163L11.0586 18.5867L11.2307 13.0796C11.2348 12.9504 11.3378 12.8491 11.4653 12.8491C11.5918 12.8491 11.6945 12.9501 11.6997 13.0793L11.8935 18.5869L11.6994 21.2155Z" fill="white"/>
<path d="M15.9968 21.1417C15.9936 21.3162 15.85 21.4582 15.676 21.4582C15.502 21.4582 15.3579 21.3162 15.3552 21.1433C15.3552 21.1433 15.2341 18.5906 15.2341 18.5865L15.3552 12.2279C15.3579 12.0532 15.5017 11.9114 15.6759 11.9114C15.85 11.9114 15.9938 12.0534 15.9968 12.2277L16.1322 18.5887L15.9968 21.1417Z" fill="white"/>
<path d="M13.832 21.1745C13.8279 21.3279 13.7057 21.4483 13.5543 21.4483C13.4018 21.4483 13.2797 21.3279 13.2764 21.1761L13.1296 18.588L13.2762 13.0402C13.2794 12.8867 13.4016 12.7666 13.554 12.7666C13.7055 12.7666 13.8276 12.8867 13.8317 13.0402L13.9966 18.5877L13.832 21.1764V21.1745Z" fill="white"/>
<path d="M8.56174 21.2585C8.55495 21.3524 8.48205 21.4238 8.39208 21.4238C8.3007 21.4238 8.22812 21.3524 8.22214 21.2582L8.01196 18.5845L8.22214 16.0419C8.22784 15.9474 8.3007 15.876 8.39208 15.876C8.48235 15.876 8.55515 15.9469 8.56174 16.0408L8.80041 18.5845L8.56174 21.2585Z" fill="white"/>
<path d="M6.51087 21.1549C6.50325 21.226 6.44997 21.2775 6.3842 21.2775C6.31729 21.2775 6.26401 21.2257 6.25747 21.1544L6.02148 18.5841L6.25747 15.9163C6.26427 15.8451 6.31755 15.7935 6.38417 15.7935C6.44995 15.7935 6.50323 15.8449 6.51112 15.9163L6.77893 18.5841L6.51087 21.1549Z" fill="white"/>
<path d="M14.3115 13.2432C14.3147 13.0772 14.4467 12.9478 14.6111 12.9478C14.7753 12.9478 14.9064 13.0772 14.9102 13.2426L15.0603 18.5884L14.9102 21.1603V21.1582C14.9064 21.324 14.7753 21.4533 14.6111 21.4533C14.4464 21.4533 14.3148 21.3238 14.3115 21.1601L14.1777 18.5881L14.3115 13.2432Z" fill="white"/>
<path d="M10.6455 21.2421C10.6401 21.3592 10.5463 21.451 10.4326 21.451C10.3179 21.451 10.2244 21.3592 10.2198 21.2432L10.0347 18.5864L10.2195 13.5033C10.2244 13.3862 10.3179 13.2944 10.4326 13.2944C10.5463 13.2944 10.6398 13.3859 10.6455 13.5033L10.8543 18.5864L10.6455 21.2421Z" fill="white"/>
<path d="M12.7614 21.2005V21.2001C12.7563 21.3406 12.6444 21.4508 12.5055 21.4508C12.366 21.4508 12.2535 21.3402 12.2497 21.2002L12.0901 18.587L12.2494 12.8941C12.2532 12.7525 12.3657 12.6418 12.5055 12.6418C12.6444 12.6418 12.757 12.7528 12.7614 12.8941L12.9407 18.5873L12.7614 21.1991V21.2001C12.7614 21.1999 12.7614 21.1996 12.7614 21.1994V21.2005Z" fill="white"/>
<path d="M25.1119 15.5447C25.4817 15.391 25.8875 15.3056 26.313 15.3056C28.0278 15.3056 29.4178 16.6847 29.4179 18.3857C29.4179 20.0866 28.0275 21.4654 26.3128 21.4654C26.2573 21.4654 17.7134 21.4611 17.7055 21.4603C17.52 21.4418 17.3726 21.2847 17.3701 21.0963V11.3222C17.3723 11.1426 17.4347 11.05 17.6691 10.9601C18.272 10.7288 18.9549 10.592 19.6554 10.592C22.518 10.592 24.8648 12.7692 25.1119 15.5447Z" fill="white"/>
<path d="M16.3935 11.6519C16.3962 11.4653 16.5496 11.3135 16.7363 11.3135C16.9225 11.3135 17.0758 11.4653 17.0785 11.6514L17.2311 18.5894L17.0785 21.1074V21.1045C17.0758 21.2911 16.9225 21.4427 16.7363 21.4427C16.5496 21.4427 16.3962 21.2911 16.3938 21.1072L16.2532 18.5894L16.3935 11.6519Z" fill="white"/>
</g>
<defs>
<linearGradient id="paint0_linear_712_9082" x1="16.8282" y1="0" x2="16.8282" y2="32" gradientUnits="userSpaceOnUse">
<stop stop-color="#FF7602"/>
<stop offset="1" stop-color="#FF3502"/>
</linearGradient>
<clipPath id="clip0_712_9082">
<rect width="174" height="32" fill="white"/>
</clipPath>
</defs>
</svg>
